<svg width="77" height="128" viewBox="0 0 77 128" fill="none" xmlns="http://www.w3.org/2000/svg">
<path d="M59.7807 2.4002V5.2002C59.7807 5.4002 59.7807 5.5002 59.6807 5.6002L57.3807 9.0002H19.3807L17.0807 5.7002C16.9807 5.6002 16.9807 5.4002 16.9807 5.3002V2.4002C16.9807 2.0002 17.2807 1.7002 17.6807 1.7002H59.0807C59.4807 1.7002 59.7807 2.0002 59.7807 2.4002Z" fill="#FF8D6B"/>
<path d="M57.1807 13.1002V9.80022C57.1807 9.60022 57.2807 9.30022 57.3807 9.10022H19.3807C19.4807 9.30022 19.5807 9.50022 19.5807 9.80022V13.1002C11.1807 20.6002 1.48071 30.9002 1.48071 44.0002V114.3C1.48071 120.7 6.68071 126 13.1807 126H63.5807C69.9807 126 75.2807 120.8 75.2807 114.3V44.0002C75.2807 30.9002 65.5807 20.6002 57.1807 13.1002ZM19.3807 44.0002V114.3C14.3807 114.3 12.5807 114.3 8.78071 114.3V44.0002C8.78071 30.8002 18.4807 20.6002 26.8807 13.1002H37.4807C29.0807 20.6002 19.3807 30.9002 19.3807 44.0002Z" fill="#F2F2F2"/>
<path d="M58.1807 12.7002V9.8002V9.7002L60.4807 6.2002C60.6807 5.9002 60.7807 5.6002 60.7807 5.2002V2.4002C60.7807 1.5002 59.9807 0.700195 59.0807 0.700195H17.6807C16.7807 0.700195 15.9807 1.5002 15.9807 2.4002V5.2002C15.9807 5.5002 16.0807 5.9002 16.2807 6.2002L18.5807 9.7002V9.8002V12.7002C10.0807 20.3002 0.480713 30.7002 0.480713 44.1002V114.4C0.480713 121.4 6.18071 127.1 13.1807 127.1H63.5807C70.5807 127.1 76.2807 121.4 76.2807 114.4V44.1002C76.2807 30.7002 66.6807 20.3002 58.1807 12.7002ZM74.2807 114.3C74.2807 120.2 69.4807 125 63.5807 125H13.1807C7.28071 125 2.48071 120.2 2.48071 114.3V44.1002C2.48071 31.4002 11.9807 21.3002 20.2807 13.9002C20.4807 13.7002 20.5807 13.4002 20.5807 13.2002V10.2002H50.2807C50.8807 10.2002 51.2807 9.8002 51.2807 9.2002C51.2807 8.6002 50.8807 8.2002 50.2807 8.2002H19.8807L17.8807 5.3002V2.7002H58.7807V5.2002L56.4807 8.6002C56.2807 9.0002 56.0807 9.4002 56.0807 9.8002V13.1002C56.0807 13.4002 56.1807 13.7002 56.3807 13.8002C64.6807 21.2002 74.1807 31.3002 74.1807 44.0002V114.3H74.2807Z" fill="#514444"/>
</svg>
