<svg width="61" height="101" viewBox="0 0 61 101" fill="none" xmlns="http://www.w3.org/2000/svg">
<path d="M55.6807 3.30005V8.60005C55.6807 8.60005 54.3807 10 54.3807 10.6H6.28072C6.28072 10 4.98071 8.60005 4.98071 8.60005V3.30005C4.98071 2.50005 5.68071 1.80005 6.48071 1.80005H54.0807C54.9807 1.80005 55.6807 2.50005 55.6807 3.30005Z" fill="#F7DFED"/>
<path d="M54.3806 10.7001H6.28062C6.28062 13.6001 1.38062 12.3001 1.38062 17.2001V92.2001C1.38062 96.1001 4.48062 99.2001 8.38062 99.2001H52.2806C56.1806 99.2001 59.2806 96.1001 59.2806 92.2001V17.2001C59.2806 12.3001 54.3806 13.6001 54.3806 10.7001ZM17.3806 92.9001H8.08061V17.6001H17.3806V92.9001Z" fill="#F2F2F2"/>
<path d="M56.7807 12.0001C55.6807 11.4001 55.3807 11.2001 55.3807 10.7001C55.4807 10.5001 55.9807 9.8001 56.3807 9.2001C56.5807 9.0001 56.6807 8.8001 56.6807 8.5001V3.1001C56.6807 1.7001 55.5807 0.600098 54.1807 0.600098H6.58071C5.18071 0.600098 4.08071 1.7001 4.08071 3.1001V8.5001C4.08071 8.7001 4.18071 9.0001 4.38071 9.2001C4.88071 9.7001 5.38071 10.4001 5.38071 10.6001C5.38071 11.2001 5.08071 11.4001 3.98071 11.9001C2.58071 12.6001 0.480713 13.6001 0.480713 17.1001V92.1001C0.480713 96.5001 4.08071 100.1 8.48071 100.1H52.3807C56.7807 100.1 60.3807 96.5001 60.3807 92.1001V17.1001C60.3807 13.8001 58.1807 12.7001 56.7807 12.0001ZM58.3807 92.2001C58.3807 95.5001 55.6807 98.2001 52.3807 98.2001H8.48071C5.18071 98.2001 2.48071 95.5001 2.48071 92.2001V17.2001C2.48071 15.0001 3.58071 14.5001 4.88071 13.8001C5.78071 13.4001 6.88072 12.8001 7.28072 11.7001H43.7807C44.3807 11.7001 44.7807 11.3001 44.7807 10.7001C44.7807 10.1001 44.3807 9.7001 43.7807 9.7001H6.98071C6.78071 9.2001 6.38071 8.7001 5.98071 8.3001V3.3001C5.98071 3.0001 6.18071 2.8001 6.48071 2.8001H54.0807C54.3807 2.8001 54.5807 3.0001 54.5807 3.3001V8.3001C53.9807 9.0001 53.2807 10.0001 53.2807 10.7001C53.2807 12.6001 54.6807 13.3001 55.7807 13.8001C57.0807 14.5001 58.1807 15.0001 58.1807 17.2001V92.2001H58.3807Z" fill="#514444"/>
</svg>
