<svg width="67" height="80" viewBox="0 0 67 80" fill="none" xmlns="http://www.w3.org/2000/svg">
<path d="M58.7806 15.4999C58.7806 11.2999 60.5806 12.1999 60.5806 9.29993H6.58061C6.58061 12.1999 8.38062 11.2999 8.38062 15.4999C8.38062 19.4999 1.88062 22.7999 1.88062 32.1999C1.88062 56.9999 12.1806 71.6999 16.2806 76.4999C17.2806 77.5999 18.5806 78.2999 20.0806 78.2999H47.1806C48.6806 78.2999 50.0806 77.6999 50.9806 76.4999C54.9806 71.6999 65.3806 56.9999 65.3806 32.1999C65.2806 22.6999 58.7806 19.4999 58.7806 15.4999ZM22.0806 73.3999C17.3806 66.6999 10.0806 52.9999 10.0806 32.1999C10.0806 22.7999 16.5806 19.4999 16.5806 15.4999C19.9806 15.4999 22.7806 15.4999 25.8806 15.4999C25.8806 19.4999 19.3806 22.7999 19.3806 32.1999C19.3806 52.9999 26.6806 66.6999 31.3806 73.3999C28.1806 73.3999 24.4806 73.3999 22.0806 73.3999Z" fill="#F2F2F2"/>
<path d="M60.5806 9.1999H6.58057C6.58057 8.1999 6.58057 5.9999 6.68057 4.2999C6.68057 2.9999 7.78057 1.8999 9.08057 1.8999H58.1806C59.4806 1.8999 60.5806 2.9999 60.5806 4.2999C60.5806 6.0999 60.5806 8.2999 60.5806 9.1999Z" fill="#CDCDCD"/>
<path d="M61.8806 19.6999C60.6806 17.9999 59.7806 16.6999 59.7806 15.3999C59.7806 13.3999 60.1806 12.7999 60.6806 12.1999C61.1806 11.5999 61.6806 10.7999 61.6806 9.1999C61.6806 8.1999 61.6806 5.9999 61.5806 4.2999C61.5806 2.3999 60.0806 0.999902 58.1806 0.899902H9.08061C7.18061 0.899902 5.68062 2.3999 5.68062 4.2999C5.68062 5.9999 5.58061 8.1999 5.58061 9.1999C5.58061 10.7999 6.08061 11.5999 6.58061 12.1999C6.98061 12.7999 7.48061 13.3999 7.48061 15.3999C7.48061 16.6999 6.58062 17.9999 5.38062 19.6999C3.48062 22.3999 0.880615 26.0999 0.880615 32.0999C0.880615 56.9999 11.0806 71.7999 15.4806 76.9999C16.5806 78.2999 18.2806 79.0999 20.0806 79.0999H47.1806C48.9806 79.0999 50.5806 78.2999 51.7806 76.9999C56.1806 71.7999 66.3806 56.9999 66.3806 32.0999C66.2806 26.0999 63.6806 22.3999 61.8806 19.6999ZM50.1806 75.7999C49.4806 76.6999 48.2806 77.1999 47.1806 77.1999H20.0806C18.8806 77.1999 17.7806 76.6999 17.0806 75.7999C12.7806 70.7999 2.98061 56.3999 2.98061 32.1999C2.98061 26.7999 5.28061 23.4999 7.08061 20.8999C8.38061 18.9999 9.48061 17.3999 9.48061 15.4999C9.48061 12.8999 8.78061 11.8999 8.28061 11.0999C8.08061 10.7999 7.88061 10.5999 7.78061 10.1999H49.0806C49.6806 10.1999 50.0806 9.7999 50.0806 9.1999C50.0806 8.5999 49.6806 8.1999 49.0806 8.1999H7.58061C7.58061 7.0999 7.58062 5.5999 7.68062 4.3999C7.68062 3.5999 8.28061 2.9999 9.08061 2.9999H58.0806C58.8806 2.9999 59.4806 3.5999 59.4806 4.3999C59.4806 6.0999 59.5806 8.2999 59.5806 9.1999C59.5806 10.1999 59.3806 10.4999 58.9806 11.0999C58.4806 11.8999 57.7806 12.7999 57.7806 15.4999C57.7806 17.3999 58.8806 18.9999 60.1806 20.8999C61.9806 23.4999 64.2806 26.7999 64.2806 32.1999C64.2806 56.3999 54.3806 70.7999 50.1806 75.7999Z" fill="#514444"/>
</svg>
